<svg xmlns="http://www.w3.org/2000/svg" width="18" height="14.567" viewBox="0 0 18 14.567">
  <path id="Path_2658" data-name="Path 2658" d="M11.969,1.206A6.079,6.079,0,0,0,9,1.986,5.008,5.008,0,1,0,2.357,9.26a4.088,4.088,0,0,0-.223,1.318A3.989,3.989,0,0,0,9.482,12.73,6.03,6.03,0,1,0,11.969,1.206ZM.928,5.01a4.08,4.08,0,0,1,7.3-2.505A6.039,6.039,0,0,0,5.975,6.588a3.984,3.984,0,0,0-3.2,1.828A4.061,4.061,0,0,1,.928,5.01Zm8.165,0a4.028,4.028,0,0,1-.705,2.282,3.891,3.891,0,0,0-1.494-.631A5.148,5.148,0,0,1,8.722,3.3,4.175,4.175,0,0,1,9.093,5.01Zm-.028,6.421a5.125,5.125,0,0,1-1.7-1.995A5.334,5.334,0,0,0,8.48,8.629a3.036,3.036,0,0,1,.705,1.948A3.215,3.215,0,0,1,9.065,11.431ZM5.947,7.525a5.821,5.821,0,0,0,.232,1.4,4.047,4.047,0,0,1-1.169.167A4.215,4.215,0,0,1,3.6,8.842,3.067,3.067,0,0,1,5.947,7.525Zm.937.084a2.81,2.81,0,0,1,.9.4,3.933,3.933,0,0,1-.742.547A4.584,4.584,0,0,1,6.885,7.608Zm-.761,6.031a3.065,3.065,0,0,1-3.062-3.062,2.9,2.9,0,0,1,.139-.9,4.933,4.933,0,0,0,3.3.111,6.029,6.029,0,0,0,2.162,2.487A3.045,3.045,0,0,1,6.124,13.639Zm5.845-1.3a5,5,0,0,1-2.078-.445,3.852,3.852,0,0,0,.223-1.318A3.992,3.992,0,0,0,9.093,7.914a4.969,4.969,0,0,0,.928-2.9,5.054,5.054,0,0,0-.529-2.236,5.1,5.1,0,1,1,2.477,9.566Z"/>
</svg>
